<?xml version="1.0" encoding="utf-8"?>
<!-- Generator: Adobe Illustrator 23.0.2, SVG Export Plug-In . SVG Version: 6.00 Build 0)  -->
<svg version="1.1" xmlns="http://www.w3.org/2000/svg" xmlns:xlink="http://www.w3.org/1999/xlink" x="0px" y="0px"
	 viewBox="0 0 1643 1658" style="enable-background:new 0 0 1643 1658;" xml:space="preserve">
<style type="text/css">
	.st0{fill:#D1C593;stroke:#0D1720;stroke-width:14;stroke-miterlimit:10;}
	.st1{fill:#D1C593;}
	.st2{fill:#0D1720;}
	.st3{fill:#D0C391;stroke:#101820;stroke-width:2;stroke-miterlimit:10;}
	.st4{fill:#A6C7E3;stroke:#101820;stroke-miterlimit:10;}
	.st5{display:none;}
	.st6{display:inline;}
	.st7{fill:#FFFFFF;}
	.st8{fill:#101820;}
	.st9{fill:#D0C391;}
	.st10{fill:none;stroke:#D1C593;stroke-width:1.3807;stroke-miterlimit:10;}
	.st11{fill-rule:evenodd;clip-rule:evenodd;fill:#D1C593;stroke:#D1C593;stroke-width:0.6136;stroke-miterlimit:10;}
	.st12{opacity:0.56;}
	.st13{fill:#7793A9;}
	.st14{fill:#AAA17D;}
	.st15{fill:#E0D4A2;}
	.st16{opacity:0.2;}
	.st17{display:none;opacity:0.2;}
	.st18{display:inline;fill:#101820;}
	.st19{fill:#CBC693;}
	.st20{fill:#081F2D;}
	.st21{fill:#65B2E8;}
	.st22{fill:none;}
	.st23{fill:#011E41;}
	.st24{display:none;opacity:0.23;fill:#F7931E;}
</style>
<g id="LOGO_WORK">
</g>
<g id="MERCH">
</g>
<g id="BASE_LOGOS">
	<g id="Main_Hawk_Logo">
		<path class="st20" d="M407.85,195.44l92.4,41.95C313.33,242.68,118.99,494.4,89,888.15l43.18-49.7
			c-25.01,294.29,93.19,465.94,289.44,630.57c-55.56-93.13-91.02-174.52-99.26-240c163.14,283.06,404.56,380.01,712.27,319.37
			c-52.54-31.21-98.51-67.17-139.25-106.9c89.79,44.65,191.73,57.75,318.02,7.65c-123.84-92.13-100.9-417.54,23.46-466.06
			l163.15,43.58c33.68,10.29,59.34,30.52,65.19,75.29c136.3-96.74,135.83-250.04-34.58-473.6l51.79-38.62
			c-184-310.08-440.38-473.63-754.72-519.88l66.19,65.95C650.16,126.58,520.59,144.73,407.85,195.44z"/>
		<path class="st7" d="M1236.76,753.09c8.48-12.21,17.55-22.04,27.06-30.42c29.37,25.55,56.42,59.64,82.35,97.87
			C1305.86,797.98,1268.32,775.47,1236.76,753.09z"/>
		<path class="st7" d="M673.2,252.64c-228.71,51.38-381.95,192.67-478.04,402.03c34.02-48.62,64.7-70.5,93.36-76.15
			c-100.14,208.64-113.35,414.64-41.33,618.04c-14.62-121.34,3.65-227.92,47.84-322.88c5.93,348.81,189.65,519.49,481.26,582.08
			c-56.18-87.74-63.52-197.26-39.86-320.58c62.48,126.54,169.14,210.36,337.78,234.2c-53.39-10.01-46.91-338.47,8.64-337.04
			c-10.69-44.2-23.2-85.52-37.65-123.77c2.57,41.33,3.22,82.83,1.85,124.51c-38.1-113.49-88.5-200.19-156.6-248.38l-29.9,23.13
			c-52.33-110.61,118.71-109.94,326.12-71.72l106.35-85.42c26.24-19.92,35.25-36.85,27.25-91.71l12.31,15.74
			c6.87,8.89,21.36,2.13,45.51-24.48c-154.91-191.86-296.27-298.1-429.46-352.69l70.11,88.58c-95.57-72.41-236.5-99.17-428.72-74.3
			L673.2,252.64z"/>
		<path class="st19" d="M664.72,1384.04C517.53,1129.43,459.26,930.27,500.49,793.2c32.56,86.95,86.8,160.75,161.04,222.41
			c-121.76-198.38-98.46-341.75,22.63-448.04c-46.46,11.6-90.14,30.2-129.91,58.68c14.02-60.93,57.32-115.55,165.46-156.24
			c-48.58-16.18-96.83-25.61-144.67-26.81c70.53-35.45,145.73-41.89,225.61-19.2l-39.86-54c120.95,19.71,226.84,53.82,303.44,115.92
			c37.93,92.21,81.53,130.79,130.93,133.93c33.6,7.27,70.15-12.75,107.64-67.78c-2.69,12.55-4.11,25.1-3.81,37.65
			c6.91-5.2,13.99-15.21,21.27-30.75c3.82,5.19,12.19,15.59,12.19,15.59c4.25,5.49,10.58,4.7,18.11,0.28c0,0,5.4-2.97,13.42-10.29
			c0,0-208.33-216.88-310.9-283.72c24.39,38.61,49.99,75.99,77,111.96c-99.9-78.21-205.12-123.72-313.45-150.08
			c31.32,17.44,63.81,40.9,97.18,68.88c-81.82-36.27-164.28-49.13-247.38-38.86l41.83,33.94
			c-146.78-0.01-283.08,115.4-413.22,298.81c40.65-20.34,82.31-32.12,124.87-36.15c-106.33,86.88-161,184.49-175.56,290.43
			c33.9-47.65,72.51-87.17,116.38-117.6C325.9,1049.43,436.61,1256.97,664.72,1384.04z"/>
		<path class="st21" d="M1055.16,537.89c0,45.93-46.94,66.78-93.73,66.78s-84.71-37.24-84.71-83.17s37.93-83.17,84.71-83.17
			S1055.16,491.96,1055.16,537.89z"/>
		<path id="Outside_Eye_1_" class="st20" d="M965.02,583.68c38.83,3.26,92.38-10.68,75.63-45.75c-3.07-6.65-0.36-30.15-22.63-52.66
			c5.9,9.84,9.22,21.41,9.22,33.96c-0.24,34.08-25.95,61.63-57.56,61.51c-1.47-0.02-2.93-0.09-4.39-0.21
			c-29.55-2.64-52.8-29.43-52.58-61.92c0-12.93,3.82-24.86,10.1-34.7l38.74,33.22l-20.66-51.43c8.61-5.42,18.69-8.61,29.4-8.49
			c-1.61-0.62-3.21-1.11-4.92-1.71c-30.39-9.98-63-1.61-68.66,40.34c-5.66,41.83,21.29,80.71,60.03,86.86
			C959.41,583.12,962.17,583.46,965.02,583.68z M760.87,370c9.21,0.99,18.27,2.09,26.98,3.33
			c380.14,50.81,251.33,211.95,407.32,246.53c-0.86,1.11-1.73,2.09-2.59,2.95c-13.53,14.4-30.63,23.86-48.84,23.38
			c-20.06-0.5-38.14-12.81-52.4-27.93c-0.62-0.5-1.11-1.11-1.59-1.61c-4.44,3.45-8.86,6.41-12.67,8.86
			c-12.55,8.37-25.47,16.73-39.5,21.03c-7.01,2.21-14.26,3.33-21.53,4.3c-13.29,1.97-27.19,3.82-39.74-0.98
			c21.79-5.16,39.86-21.53,52.9-42.21c-11.69,4.8-23.13,10.71-35.06,14.4c-40.85,12.93-86.48-2.21-114.79-36.05
			c-23.74-28.29-35.79-68.64-32.47-107.76c-6.65,27.31-7.99,55.97-3.69,83.42c-14.02-20.91-25.59-44.3-30.75-69.87
			c-4.92-24.62-4.18-58.08,9.46-80.95c-10.2-8.62-22.01-16.87-32.97-24c-10.95-7.01-20.91-12.79-28.17-16.85
			C760.82,370,760.85,370,760.87,370z"/>
		<path class="st19" d="M1045.83,802.78L1136,926.91c53.14-4.22,104.47-5.21,153.91-2.83
			C1168.98,846.96,1099.24,817.3,1045.83,802.78z"/>
		<path class="st19" d="M1093.08,764.16c189.78,57.55,324.24,143.05,383.21,266.7c55.86-96.37,37.66-221.85-100.03-394.28
			l-24.96,2.59c107.21,112.67,163.53,231.73,124.49,362.77c-19.11-57.86-79.76-116.9-157.09-169.15l52.76,15.61
			c21.58,4.95,33.66-18.39,40.12-58.42c-22.4-43.64-50.92-81.14-83.66-114.41c-25.1,15.59-46.81,31.28-64.08,47.08
			c22.46,23.88,50.37,57.31,82.35,97.87c-37.91-21.41-74.38-43.9-109.41-67.45c-2.92,4.61-5.38,9.15-6.87,13.51l42.31,41.43
			C1200.35,785.2,1140.28,770.34,1093.08,764.16z"/>
		<path class="st20" d="M1287.32,720.48c9.5,17.11,19.44,28.99,29.64,37.65l-1.47-21.03c19.77,16.62,33.47,40.71,44.52,68.07
			c-8.29-57.57-18.79-94.89-32.21-105.22C1310.04,693.1,1296.67,700.31,1287.32,720.48z"/>
	</g>
</g>
<g id="Layer_4">
</g>
</svg>
